HIERARCHY
ROOT Hips
{
	OFFSET -0.001795 -0.223333 0.028219
	CHANNELS 6 Xposition Yposition Zposition Zrotation Yrotation Xrotation 
	JOINT LeftUpLeg
	{
		OFFSET 0.069520 -0.091406 -0.006815
		CHANNELS 3 Zrotation Yrotation Xrotation
		JOINT LeftLeg
		{
			OFFSET 0.034277 -0.375199 -0.004496
			CHANNELS 3 Zrotation Yrotation Xrotation
			JOINT LeftFoot
			{
				OFFSET -0.013596 -0.397961 -0.043693
				CHANNELS 3 Zrotation Yrotation Xrotation
				JOINT LeftToe
				{
					OFFSET 0.026358 -0.055791 0.119288
					CHANNELS 3 Zrotation Yrotation Xrotation
					End Site
					{
						OFFSET 0.000000 0.000000 0.000000
					}
				}
			}
		}
	}
	JOINT RightUpLeg
	{
		OFFSET -0.067670 -0.090522 -0.004320
		CHANNELS 3 Zrotation Yrotation Xrotation
		JOINT RightLeg
		{
			OFFSET -0.038290 -0.382569 -0.008850
			CHANNELS 3 Zrotation Yrotation Xrotation
			JOINT RightFoot
			{
				OFFSET 0.015774 -0.398415 -0.042312
				CHANNELS 3 Zrotation Yrotation Xrotation
				JOINT RightToe
				{
					OFFSET -0.025372 -0.048144 0.123348
					CHANNELS 3 Zrotation Yrotation Xrotation
					End Site
					{
						OFFSET 0.000000 0.000000 0.000000
					}
				}
			}
		}
	}
	JOINT Spine
	{
		OFFSET -0.002533 0.108963 -0.026696
		CHANNELS 3 Zrotation Yrotation Xrotation
		JOINT Spine1
		{
			OFFSET 0.005487 0.135180 0.001092
			CHANNELS 3 Zrotation Yrotation Xrotation
			JOINT Spine2
			{
				OFFSET 0.001457 0.052922 0.025425
				CHANNELS 3 Zrotation Yrotation Xrotation
				JOINT Neck
				{
					OFFSET -0.002778 0.213870 -0.042857
					CHANNELS 3 Zrotation Yrotation Xrotation
					JOINT Head
					{
						OFFSET 0.005152 0.064970 0.051349
						CHANNELS 3 Zrotation Yrotation Xrotation
						End Site
						{
							OFFSET 0.000000 0.000000 0.000000
						}
					}
				}
				JOINT LeftShoulder
				{
					OFFSET 0.078845 0.121749 -0.034090
					CHANNELS 3 Zrotation Yrotation Xrotation
					JOINT LeftArm
					{
						OFFSET 0.090977 0.030469 -0.008868
						CHANNELS 3 Zrotation Yrotation Xrotation
						JOINT LeftForeArm
						{
							OFFSET 0.259612 -0.012772 -0.027456
							CHANNELS 3 Zrotation Yrotation Xrotation
							JOINT LeftHand
							{
								OFFSET 0.249234 0.008986 -0.001171
								CHANNELS 3 Zrotation Yrotation Xrotation
								End Site
								{
									OFFSET 0.000000 0.000000 0.000000
								}
							}
						}
					}
				}
				JOINT RightShoulder
				{
					OFFSET -0.081759 0.118833 -0.038615
					CHANNELS 3 Zrotation Yrotation Xrotation
					JOINT RightArm
					{
						OFFSET -0.096012 0.032551 -0.009143
						CHANNELS 3 Zrotation Yrotation Xrotation
						JOINT RightForeArm
						{
							OFFSET -0.253742 -0.013329 -0.021401
							CHANNELS 3 Zrotation Yrotation Xrotation
							JOINT RightHand
							{
								OFFSET -0.255298 0.007772 -0.005559
								CHANNELS 3 Zrotation Yrotation Xrotation
								End Site
								{
									OFFSET 0.000000 0.000000 0.000000
								}
							}
						}
					}
				}
			}
		}
	}
}
MOTION
Frames: 10
Frame Time: 0.050000
0.000000 0.951053 0.000000 -0.336288 -2.664811 1.326426 3.233767 0.235447 4.037534 -1.560663 0.329762 -7.102708 5.217572 13.202763 15.319427 0.000000 0.000000 0.000000 -2.474147 -0.104756 2.409129 2.831211 -0.304217 -1.520017 -4.159097 -13.531044 14.748379 0.000000 0.000000 0.000000 0.480492 -0.173174 3.711325 4.248796 -0.524854 -23.156146 -1.111742 1.687923 26.706476 0.871418 0.726732 -20.507895 0.000000 0.000000 0.000000 -14.324658 3.209648 -2.295266 -26.252272 -9.771171 -2.702003 12.328023 -10.835960 -0.624716 0.000000 0.000000 0.000000 5.846019 1.717006 0.454749 27.771241 10.237023 -2.163534 -15.132867 11.924746 -0.823571 0.000000 0.000000 0.000000 
-0.000043 0.950171 0.000580 -0.674477 -2.944125 1.480239 3.655789 0.245475 4.459709 -1.702148 0.357672 -7.961867 5.361305 13.380935 15.260547 0.000000 0.000000 0.000000 -2.239368 -0.111317 2.359013 3.646135 -0.375240 -2.090077 -5.174487 -15.359075 15.342899 0.000000 0.000000 0.000000 0.547724 -0.194149 4.092767 4.497054 -0.472946 -24.847015 -0.825728 2.139038 27.795034 -0.057781 1.505416 -22.944153 0.000000 0.000000 0.000000 -16.166049 3.931163 -2.865693 -30.837310 -10.460533 -3.000481 11.432231 -11.111675 -0.528946 0.000000 0.000000 0.000000 8.541615 1.883803 0.494487 32.043190 9.254993 -2.728224 -15.642229 13.855248 -1.012165 0.000000 0.000000 0.000000 
-0.000212 0.949264 0.001406 -0.350958 -3.387963 1.426635 3.907010 0.230515 4.294798 -2.834245 0.406859 -7.378429 5.589675 13.653266 15.016145 0.000000 0.000000 0.000000 -3.117350 -0.048102 2.190175 5.270356 -0.496527 -2.100381 -6.423980 -17.484597 15.590176 0.000000 0.000000 0.000000 0.757313 -0.211128 4.257201 4.015240 -0.363392 -24.927713 -0.866228 2.543237 28.124077 0.797612 0.991386 -22.950300 0.000000 0.000000 0.000000 -18.453660 3.843851 -3.095299 -34.465689 -8.614625 -3.709639 9.192669 -13.881385 -0.416764 0.000000 0.000000 0.000000 11.453310 1.961081 0.450198 36.426473 8.485009 -3.189703 -14.700652 16.181855 -1.097594 0.000000 0.000000 0.000000 
-0.000693 0.948536 0.002624 -0.326706 -3.489006 1.080682 4.385157 0.241565 4.747980 -3.682703 0.453470 -7.322925 5.601170 13.646071 14.798234 0.000000 0.000000 0.000000 -3.015037 -0.090216 2.699212 5.063753 -0.479502 -2.187467 -6.398384 -17.423397 15.262927 0.000000 0.000000 0.000000 0.013716 -0.174367 4.277733 4.812735 -0.519083 -25.322044 -1.003030 1.964124 28.874327 -0.395707 1.627154 -23.026829 0.000000 0.000000 0.000000 -20.992713 4.945968 -3.834017 -39.292175 -7.806658 -4.471243 8.421806 -15.172319 -0.294692 0.000000 0.000000 0.000000 12.574857 2.984007 0.805381 41.180012 7.340352 -3.875590 -13.929845 18.007584 -1.146116 0.000000 0.000000 0.000000 
-0.001498 0.948369 0.003861 -0.171995 -2.817722 0.966619 4.603647 0.232515 4.930847 -4.153801 0.471170 -7.452651 5.210734 13.111563 14.695711 0.000000 0.000000 0.000000 -3.130688 -0.099063 2.824275 5.192228 -0.499936 -1.923339 -6.753206 -17.944585 15.271813 0.000000 0.000000 0.000000 -0.266404 -0.170611 4.551471 5.185923 -0.575015 -25.579798 -1.283727 1.835854 28.411492 -0.315807 1.598590 -22.391653 0.000000 0.000000 0.000000 -21.854888 4.622517 -3.863496 -43.431132 -5.756358 -5.434856 6.189221 -17.814921 -0.014308 0.000000 0.000000 0.000000 13.590275 2.601278 0.630838 46.086107 5.124913 -4.957531 -12.450519 20.850820 -1.084974 0.000000 0.000000 0.000000 
-0.002545 0.948065 0.004716 -0.183645 -2.043128 0.918903 4.644245 0.203931 4.666219 -3.941284 0.450463 -6.981520 4.892692 12.661140 14.328845 0.000000 0.000000 0.000000 -3.087045 -0.126399 3.066173 5.419451 -0.528390 -2.006856 -7.122481 -18.487127 15.385793 0.000000 0.000000 0.000000 -0.399832 -0.166373 4.609541 5.159666 -0.552898 -25.661540 -1.210878 0.813772 28.481029 -0.878004 1.876119 -22.854204 0.000000 0.000000 0.000000 -22.785350 5.175539 -4.173792 -46.465530 -5.404217 -5.911413 4.226626 -18.736830 0.333007 0.000000 0.000000 0.000000 13.936430 2.914379 0.681764 49.844447 4.170002 -5.651978 -10.101287 22.143168 -0.767118 0.000000 0.000000 0.000000 
-0.003814 0.947904 0.004972 -0.171276 -1.544703 0.752563 4.733280 0.199727 4.791561 -3.880809 0.441498 -6.970559 4.644128 12.315448 14.204673 0.000000 0.000000 0.000000 -2.938595 -0.153847 3.249651 5.384712 -0.533578 -1.878916 -7.382012 -18.868736 15.389507 0.000000 0.000000 0.000000 -0.437296 -0.171208 4.785125 5.087533 -0.538581 -25.555313 -1.161039 0.363569 28.338598 -1.005579 1.939094 -23.087962 0.000000 0.000000 0.000000 -23.862181 4.636290 -3.956762 -48.573244 -4.982095 -6.291271 2.180836 -19.144362 0.678852 0.000000 0.000000 0.000000 14.775540 3.207307 0.772583 52.568540 2.591473 -6.556615 -8.219377 23.166780 -0.460363 0.000000 0.000000 0.000000 
-0.005005 0.948006 0.004851 -0.272273 -1.246423 0.711445 4.852353 0.170010 4.420925 -3.698941 0.427130 -6.323556 4.557116 12.186416 14.019559 0.000000 0.000000 0.000000 -2.609109 -0.155344 2.980077 5.201675 -0.526024 -1.276579 -7.575913 -19.163521 15.398659 0.000000 0.000000 0.000000 -0.389893 -0.173694 4.773887 5.140854 -0.543089 -25.585561 -1.346610 0.217129 28.750072 -0.865464 1.847174 -22.907183 0.000000 0.000000 0.000000 -24.788476 4.135976 -3.759715 -49.949908 -5.454567 -6.302063 1.625022 -18.861095 0.765992 0.000000 0.000000 0.000000 15.508076 3.288509 0.814407 54.729518 2.096159 -7.063402 -6.010630 23.901195 -0.040448 0.000000 0.000000 0.000000 
-0.005915 0.948258 0.004579 -0.366946 -1.008277 0.697219 4.963948 0.142840 4.066041 -3.561594 0.414579 -5.762048 4.484619 12.081701 13.911894 0.000000 0.000000 0.000000 -2.252546 -0.167047 2.859006 4.912589 -0.503926 -1.025887 -7.714393 -19.375891 15.506078 0.000000 0.000000 0.000000 -0.405941 -0.174457 4.805924 5.015350 -0.547405 -25.104479 -1.255358 0.013054 28.231506 -1.216879 2.056718 -22.778027 0.000000 0.000000 0.000000 -25.484355 3.692694 -3.577114 -50.793838 -6.008045 -6.114759 1.413696 -18.845803 0.799121 0.000000 0.000000 0.000000 16.101964 3.468284 0.859184 56.160932 1.151003 -7.584720 -4.472000 24.458925 0.252574 0.000000 0.000000 0.000000 
-0.006531 0.948540 0.004310 -0.462011 -0.943299 0.655291 4.913812 0.137092 3.920184 -3.203890 0.390113 -5.471636 4.483202 12.084342 13.898754 0.000000 0.000000 0.000000 -2.033138 -0.170976 2.758279 4.793438 -0.494101 -0.786744 -7.753488 -19.435042 15.588130 0.000000 0.000000 0.000000 -0.299364 -0.178903 4.769984 4.969603 -0.538170 -25.060528 -1.380983 0.226108 28.358447 -1.089795 1.993053 -22.058052 0.000000 0.000000 0.000000 -26.051178 2.997562 -3.284287 -51.285851 -6.486254 -5.961777 1.376052 -18.809853 0.797292 0.000000 0.000000 0.000000 16.424321 3.491318 0.922065 57.226222 0.813928 -7.881481 -3.012937 25.337689 0.580948 0.000000 0.000000 0.000000 
